<svg width="24" height="29" viewBox="0 0 24 29" fill="none" xmlns="http://www.w3.org/2000/svg">
<path d="M19.9187 15.2938C19.9062 13 20.9438 11.2688 23.0437 9.99375C21.8687 8.3125 20.0937 7.3875 17.75 7.20625C15.5312 7.03125 13.1062 8.5 12.2187 8.5C11.2812 8.5 9.13125 7.26875 7.44375 7.26875C3.95625 7.325 0.25 10.05 0.25 15.5938C0.25 17.2313 0.55 18.9229 1.15 20.6688C1.95 22.9625 4.8375 28.5875 7.85 28.4938C9.425 28.4563 10.5375 27.375 12.5875 27.375C14.575 27.375 15.6062 28.4938 17.3625 28.4938C20.4 28.45 23.0125 23.3375 23.775 21.0375C19.7 19.1188 19.9187 15.4125 19.9187 15.2938ZM16.3812 5.03125C18.0875 3.00625 17.9312 1.1625 17.8812 0.5C16.375 0.5875 14.6312 1.525 13.6375 2.68125C12.5437 3.91875 11.9 5.45 12.0375 7.175C13.6687 7.3 15.1562 6.4625 16.3812 5.03125Z" fill="#F2F0F7"/>
</svg>
