<svg width="278" height="239" viewBox="0 0 278 239" fill="none" xmlns="http://www.w3.org/2000/svg">
<g filter="url(#filter0_d_180_2122)">
<rect x="39.9375" y="40.1836" width="158" height="158" rx="32" fill="#001489"/>
<path d="M118.938 74.1836L120.485 78.9476H125.495L121.442 81.8919L122.99 86.6559L118.938 83.7116L114.885 86.6559L116.433 81.8919L112.38 78.9476H117.39L118.938 74.1836Z" fill="#FFDD00"/>
<path d="M118.938 150.395L120.485 155.159H125.495L121.442 158.103L122.99 162.867L118.938 159.923L114.885 162.867L116.433 158.103L112.38 155.159H117.39L118.938 150.395Z" fill="#FFDD00"/>
<path d="M157.047 112.291L158.595 117.055H163.604L159.551 119.999L161.099 124.763L157.047 121.819L152.994 124.763L154.542 119.999L150.49 117.055H155.499L157.047 112.291Z" fill="#FFDD00"/>
<path d="M80.832 112.291L82.38 117.055H87.3891L83.3366 119.999L84.8845 124.763L80.832 121.819L76.7795 124.763L78.3275 119.999L74.2749 117.055H79.2841L80.832 112.291Z" fill="#FFDD00"/>
<path d="M137.992 79.2891L139.54 84.0531H144.549L140.497 86.9974L142.045 91.7614L137.992 88.8171L133.94 91.7614L135.488 86.9974L131.435 84.0531H136.444L137.992 79.2891Z" fill="#FFDD00"/>
<path d="M99.8828 145.287L101.431 150.051H106.44L102.387 152.995L103.935 157.759L99.8828 154.815L95.8303 157.759L97.3782 152.995L93.3257 150.051H98.3349L99.8828 145.287Z" fill="#FFDD00"/>
<path d="M151.938 131.344L153.485 136.108H158.495L154.442 139.052L155.99 143.816L151.938 140.872L147.885 143.816L149.433 139.052L145.38 136.108H150.39L151.938 131.344Z" fill="#FFDD00"/>
<path d="M85.9336 93.2383L87.4815 98.0023H92.4907L88.4382 100.947L89.9861 105.711L85.9336 102.766L81.8811 105.711L83.429 100.947L79.3765 98.0023H84.3857L85.9336 93.2383Z" fill="#FFDD00"/>
<path d="M151.938 93.2363L153.485 98.0003H158.495L154.442 100.945L155.99 105.709L151.938 102.764L147.885 105.709L149.433 100.945L145.38 98.0003H150.39L151.938 93.2363Z" fill="#FFDD00"/>
<path d="M85.9375 131.342L87.4854 136.106H92.4946L88.4421 139.05L89.99 143.814L85.9375 140.87L81.885 143.814L83.4329 139.05L79.3804 136.106H84.3896L85.9375 131.342Z" fill="#FFDD00"/>
<path d="M137.992 145.289L139.54 150.053H144.549L140.497 152.997L142.045 157.761L137.992 154.817L133.94 157.761L135.488 152.997L131.435 150.053H136.444L137.992 145.289Z" fill="#FFDD00"/>
<path d="M99.8828 79.2891L101.431 84.0531H106.44L102.387 86.9974L103.935 91.7614L99.8828 88.8171L95.8303 91.7614L97.3782 86.9974L93.3257 84.0531H98.3349L99.8828 79.2891Z" fill="#FFDD00"/>
</g>
<defs>
<filter id="filter0_d_180_2122" x="-40.0625" y="-39.8164" width="318" height="318" filterUnits="userSpaceOnUse" color-interpolation-filters="sRGB">
<feFlood flood-opacity="0" result="BackgroundImageFix"/>
<feColorMatrix in="SourceAlpha" type="matrix" values="0 0 0 0 0 0 0 0 0 0 0 0 0 0 0 0 0 0 127 0" result="hardAlpha"/>
<feOffset/>
<feGaussianBlur stdDeviation="40"/>
<feComposite in2="hardAlpha" operator="out"/>
<feColorMatrix type="matrix" values="0 0 0 0 0 0 0 0 0 0.0784314 0 0 0 0 0.537255 0 0 0 0.3 0"/>
<feBlend mode="normal" in2="BackgroundImageFix" result="effect1_dropShadow_180_2122"/>
<feBlend mode="normal" in="SourceGraphic" in2="effect1_dropShadow_180_2122" result="shape"/>
</filter>
</defs>
</svg>
