<svg width="29" height="33" viewBox="0 0 29 33" fill="none" xmlns="http://www.w3.org/2000/svg">
<g clip-path="url(#clip0_315_19235)">
<path d="M21.8518 3.47166C22.2206 2.61541 21.9456 1.61541 21.1893 1.06541C20.4331 0.515409 19.4018 0.565409 18.6956 1.17791L2.69556 15.1779C2.07056 15.7279 1.84556 16.6092 2.13931 17.3842C2.43306 18.1592 3.18306 18.6842 4.01431 18.6842H10.9831L6.17681 29.8967C5.80806 30.7529 6.08306 31.7529 6.83931 32.3029C7.59556 32.8529 8.62681 32.8029 9.33306 32.1904L25.3331 18.1904C25.9581 17.6404 26.1831 16.7592 25.8893 15.9842C25.5956 15.2092 24.8518 14.6904 24.0143 14.6904H17.0456L21.8518 3.47166Z" fill="#F2F0F7"/>
</g>
<defs>
<clipPath id="clip0_315_19235">
<rect width="28" height="32" fill="white" transform="translate(0.015625 0.683594)"/>
</clipPath>
</defs>
</svg>
