<svg width="21" height="25" viewBox="0 0 21 25" fill="none" xmlns="http://www.w3.org/2000/svg">
<g clip-path="url(#clip0_344_9699)">
<path d="M16.3801 2.27464C16.6566 1.63246 16.4504 0.882455 15.8832 0.469955C15.316 0.0574553 14.5426 0.0949553 14.0129 0.55433L2.01288 11.0543C1.54413 11.4668 1.37538 12.1278 1.59569 12.709C1.81601 13.2903 2.37851 13.684 3.00194 13.684H8.22851L4.62382 22.0934C4.34726 22.7356 4.55351 23.4856 5.12069 23.8981C5.68788 24.3106 6.46132 24.2731 6.99101 23.8137L18.991 13.3137C19.4598 12.9012 19.6285 12.2403 19.4082 11.659C19.1879 11.0778 18.6301 10.6887 18.0019 10.6887H12.7754L16.3801 2.27464Z" fill="#F2F0F7"/>
</g>
<defs>
<clipPath id="clip0_344_9699">
<rect width="21" height="24" fill="white" transform="translate(0 0.183594)"/>
</clipPath>
</defs>
</svg>
