<svg width="19" height="19" viewBox="0 0 19 19" fill="none" xmlns="http://www.w3.org/2000/svg">
<g clip-path="url(#clip0_562_6360)">
<path d="M9.05859 18.8398C11.4455 18.8398 13.7347 17.8916 15.4226 16.2038C17.1104 14.516 18.0586 12.2268 18.0586 9.83984C18.0586 7.4529 17.1104 5.16371 15.4226 3.47588C13.7347 1.78806 11.4455 0.839844 9.05859 0.839844C6.67165 0.839844 4.38246 1.78806 2.69463 3.47588C1.00681 5.16371 0.0585938 7.4529 0.0585938 9.83984C0.0585938 12.2268 1.00681 14.516 2.69463 16.2038C4.38246 17.8916 6.67165 18.8398 9.05859 18.8398ZM13.0312 8.1875L8.53125 12.6875C8.20078 13.018 7.66641 13.018 7.33945 12.6875L5.08945 10.4375C4.75898 10.107 4.75898 9.57266 5.08945 9.2457C5.41992 8.91875 5.9543 8.91523 6.28125 9.2457L7.93359 10.898L11.8359 6.99219C12.1664 6.66172 12.7008 6.66172 13.0277 6.99219C13.3547 7.32266 13.3582 7.85703 13.0277 8.18398L13.0312 8.1875Z" fill="#9BFF8A"/>
</g>
<defs>
<clipPath id="clip0_562_6360">
<rect width="18" height="18" fill="white" transform="translate(0.0585938 0.839844)"/>
</clipPath>
</defs>
</svg>
