<svg width="18" height="25" viewBox="0 0 18 25" fill="none" xmlns="http://www.w3.org/2000/svg">
<g clip-path="url(#clip0_344_9687)">
<path d="M9 0.183594C7.04063 0.183594 5.37187 1.43516 4.75781 3.18359H3C1.34531 3.18359 0 4.52891 0 6.18359V21.1836C0 22.8383 1.34531 24.1836 3 24.1836H15C16.6547 24.1836 18 22.8383 18 21.1836V6.18359C18 4.52891 16.6547 3.18359 15 3.18359H13.2422C12.6281 1.43516 10.9594 0.183594 9 0.183594ZM9 3.18359C9.39782 3.18359 9.77936 3.34163 10.0607 3.62293C10.342 3.90424 10.5 4.28577 10.5 4.68359C10.5 5.08142 10.342 5.46295 10.0607 5.74425C9.77936 6.02556 9.39782 6.18359 9 6.18359C8.60218 6.18359 8.22064 6.02556 7.93934 5.74425C7.65804 5.46295 7.5 5.08142 7.5 4.68359C7.5 4.28577 7.65804 3.90424 7.93934 3.62293C8.22064 3.34163 8.60218 3.18359 9 3.18359ZM3.375 12.9336C3.375 12.6352 3.49353 12.3491 3.7045 12.1381C3.91548 11.9271 4.20163 11.8086 4.5 11.8086C4.79837 11.8086 5.08452 11.9271 5.2955 12.1381C5.50647 12.3491 5.625 12.6352 5.625 12.9336C5.625 13.232 5.50647 13.5181 5.2955 13.7291C5.08452 13.9401 4.79837 14.0586 4.5 14.0586C4.20163 14.0586 3.91548 13.9401 3.7045 13.7291C3.49353 13.5181 3.375 13.232 3.375 12.9336ZM8.25 12.1836H14.25C14.6625 12.1836 15 12.5211 15 12.9336C15 13.3461 14.6625 13.6836 14.25 13.6836H8.25C7.8375 13.6836 7.5 13.3461 7.5 12.9336C7.5 12.5211 7.8375 12.1836 8.25 12.1836ZM3.375 17.4336C3.375 17.1352 3.49353 16.8491 3.7045 16.6381C3.91548 16.4271 4.20163 16.3086 4.5 16.3086C4.79837 16.3086 5.08452 16.4271 5.2955 16.6381C5.50647 16.8491 5.625 17.1352 5.625 17.4336C5.625 17.732 5.50647 18.0181 5.2955 18.2291C5.08452 18.4401 4.79837 18.5586 4.5 18.5586C4.20163 18.5586 3.91548 18.4401 3.7045 18.2291C3.49353 18.0181 3.375 17.732 3.375 17.4336ZM7.5 17.4336C7.5 17.0211 7.8375 16.6836 8.25 16.6836H14.25C14.6625 16.6836 15 17.0211 15 17.4336C15 17.8461 14.6625 18.1836 14.25 18.1836H8.25C7.8375 18.1836 7.5 17.8461 7.5 17.4336Z" fill="#F2F0F7"/>
</g>
<defs>
<clipPath id="clip0_344_9687">
<rect width="18" height="24" fill="white" transform="translate(0 0.183594)"/>
</clipPath>
</defs>
</svg>
