<svg width="25" height="25" viewBox="0 0 25 25" fill="none" xmlns="http://www.w3.org/2000/svg">
<path d="M12.875 24.8398C16.0576 24.8398 19.1098 23.5756 21.3603 21.3251C23.6107 19.0747 24.875 16.0224 24.875 12.8398C24.875 9.65725 23.6107 6.605 21.3603 4.35456C19.1098 2.10413 16.0576 0.839844 12.875 0.839844C9.6924 0.839844 6.64016 2.10413 4.38972 4.35456C2.13928 6.605 0.875 9.65725 0.875 12.8398C0.875 16.0224 2.13928 19.0747 4.38972 21.3251C6.64016 23.5756 9.6924 24.8398 12.875 24.8398ZM9.07812 9.04297C9.51875 8.60234 10.2312 8.60234 10.6672 9.04297L12.8703 11.2461L15.0734 9.04297C15.5141 8.60234 16.2266 8.60234 16.6625 9.04297C17.0984 9.48359 17.1031 10.1961 16.6625 10.632L14.4594 12.8352L16.6625 15.0383C17.1031 15.4789 17.1031 16.1914 16.6625 16.6273C16.2219 17.0633 15.5094 17.068 15.0734 16.6273L12.8703 14.4242L10.6672 16.6273C10.2266 17.068 9.51406 17.068 9.07812 16.6273C8.64219 16.1867 8.6375 15.4742 9.07812 15.0383L11.2812 12.8352L9.07812 10.632C8.6375 10.1914 8.6375 9.47891 9.07812 9.04297Z" fill="#FF8A8A"/>
</svg>
