<svg width="30" height="25" viewBox="0 0 30 25" fill="none" xmlns="http://www.w3.org/2000/svg">
<g clip-path="url(#clip0_344_9693)">
<path d="M9.75051 16.6836C15.1365 16.6836 19.5005 12.9898 19.5005 8.43359C19.5005 3.87734 15.1365 0.183594 9.75051 0.183594C4.36458 0.183594 0.000513021 3.87734 0.000513021 8.43359C0.000513021 10.243 0.689575 11.9164 1.85676 13.2805C1.6927 13.7211 1.44895 14.1102 1.19114 14.4383C0.966138 14.7289 0.736451 14.9539 0.567701 15.1086C0.483326 15.1836 0.413013 15.2445 0.366138 15.282C0.342701 15.3008 0.32395 15.3148 0.314575 15.3195L0.305201 15.3289C0.047388 15.5211 -0.065112 15.8586 0.038013 16.1633C0.141138 16.468 0.427076 16.6836 0.750513 16.6836C1.77239 16.6836 2.80364 16.4211 3.66145 16.0977C4.0927 15.9336 4.49583 15.7508 4.8427 15.5633C6.28645 16.2758 7.95989 16.6836 9.75051 16.6836ZM21.0005 8.43359C21.0005 13.6977 16.3552 17.6633 10.8521 18.1367C11.9911 21.6242 15.7693 24.1836 20.2505 24.1836C22.0411 24.1836 23.7146 23.7758 25.1583 23.0633C25.5099 23.2508 25.9083 23.4336 26.3396 23.5977C27.1974 23.9211 28.2286 24.1836 29.2505 24.1836C29.5739 24.1836 29.8646 23.9727 29.963 23.6633C30.0615 23.3539 29.9536 23.0164 29.6911 22.8242L29.6818 22.8148C29.6724 22.8055 29.6536 22.7961 29.6302 22.7773C29.5833 22.7398 29.513 22.6836 29.4286 22.6039C29.2599 22.4492 29.0302 22.2242 28.8052 21.9336C28.5474 21.6055 28.3036 21.2117 28.1396 20.7758C29.3068 19.4164 29.9958 17.743 29.9958 15.9289C29.9958 11.5789 26.0161 8.01172 20.9677 7.70234C20.9865 7.94141 20.9958 8.18516 20.9958 8.42891L21.0005 8.43359Z" fill="#F2F0F7"/>
</g>
<defs>
<clipPath id="clip0_344_9693">
<rect width="30" height="24" fill="white" transform="translate(0 0.183594)"/>
</clipPath>
</defs>
</svg>
