<svg width="33" height="33" viewBox="0 0 33 33" fill="none" xmlns="http://www.w3.org/2000/svg">
<g clip-path="url(#clip0_315_19224)">
<path d="M18.0156 2.68359C18.0156 1.57734 17.1219 0.683594 16.0156 0.683594C14.9094 0.683594 14.0156 1.57734 14.0156 2.68359V17.8523L9.42813 13.2648C8.64688 12.4836 7.37813 12.4836 6.59688 13.2648C5.81563 14.0461 5.81563 15.3148 6.59688 16.0961L14.5969 24.0961C15.3781 24.8773 16.6469 24.8773 17.4281 24.0961L25.4281 16.0961C26.2094 15.3148 26.2094 14.0461 25.4281 13.2648C24.6469 12.4836 23.3781 12.4836 22.5969 13.2648L18.0156 17.8523V2.68359ZM4.01562 22.6836C1.80938 22.6836 0.015625 24.4773 0.015625 26.6836V28.6836C0.015625 30.8898 1.80938 32.6836 4.01562 32.6836H28.0156C30.2219 32.6836 32.0156 30.8898 32.0156 28.6836V26.6836C32.0156 24.4773 30.2219 22.6836 28.0156 22.6836H21.6719L18.8406 25.5148C17.2781 27.0773 14.7469 27.0773 13.1844 25.5148L10.3594 22.6836H4.01562ZM27.0156 26.1836C27.4135 26.1836 27.795 26.3416 28.0763 26.6229C28.3576 26.9042 28.5156 27.2858 28.5156 27.6836C28.5156 28.0814 28.3576 28.4629 28.0763 28.7443C27.795 29.0256 27.4135 29.1836 27.0156 29.1836C26.6178 29.1836 26.2363 29.0256 25.955 28.7443C25.6737 28.4629 25.5156 28.0814 25.5156 27.6836C25.5156 27.2858 25.6737 26.9042 25.955 26.6229C26.2363 26.3416 26.6178 26.1836 27.0156 26.1836Z" fill="#F2F0F7"/>
</g>
<defs>
<clipPath id="clip0_315_19224">
<rect width="32" height="32" fill="white" transform="translate(0.015625 0.683594)"/>
</clipPath>
</defs>
</svg>
