<svg width="24" height="25" viewBox="0 0 24 25" fill="none" xmlns="http://www.w3.org/2000/svg">
<path d="M2.25 3.18359C1.00781 3.18359 0 4.19141 0 5.43359C0 6.14141 0.332813 6.80703 0.9 7.23359L11.1 14.8836C11.6344 15.282 12.3656 15.282 12.9 14.8836L23.1 7.23359C23.6672 6.80703 24 6.14141 24 5.43359C24 4.19141 22.9922 3.18359 21.75 3.18359H2.25ZM0 8.43359V18.1836C0 19.8383 1.34531 21.1836 3 21.1836H21C22.6547 21.1836 24 19.8383 24 18.1836V8.43359L13.8 16.0836C12.7312 16.8852 11.2688 16.8852 10.2 16.0836L0 8.43359Z" fill="#F2F0F7"/>
</svg>
