<svg width="19" height="18" viewBox="0 0 19 18" fill="none" xmlns="http://www.w3.org/2000/svg">
<g clip-path="url(#clip0_318_24763)">
<path d="M11.7938 11.25C11.3767 13.2224 10.4196 15.0401 9.0293 16.5C7.10347 14.4779 6.0293 11.7924 6.0293 9C6.0293 6.20756 7.10347 3.52212 9.0293 1.5C7.6432 1.50036 6.28431 1.88483 5.10349 2.61074C3.92267 3.33664 2.96611 4.37557 2.34 5.6122C1.71389 6.84884 1.44273 8.23479 1.55661 9.6162C1.67049 10.9976 2.16497 12.3204 2.98514 13.4378C3.80531 14.5553 4.9191 15.4235 6.20285 15.9462C7.48661 16.469 8.89011 16.6257 10.2576 16.3991C11.625 16.1724 12.9029 15.5713 13.9494 14.6623C14.9958 13.7534 15.77 12.5723 16.1858 11.25" stroke="#C1A3FF" stroke-width="2" stroke-linecap="round" stroke-linejoin="round"/>
<path d="M1.53125 9H7.90625" stroke="#C1A3FF" stroke-width="2" stroke-linecap="round" stroke-linejoin="round"/>
<path d="M15.0312 4.5V3C15.0312 2.60218 14.8732 2.22064 14.5919 1.93934C14.3106 1.65804 13.9291 1.5 13.5312 1.5C13.1334 1.5 12.7519 1.65804 12.4706 1.93934C12.1893 2.22064 12.0312 2.60218 12.0312 3V4.5" stroke="#C1A3FF" stroke-width="2" stroke-linecap="round" stroke-linejoin="round"/>
<path d="M15.7812 4.5H11.2812C10.867 4.5 10.5312 4.83579 10.5312 5.25V7.5C10.5312 7.91421 10.867 8.25 11.2812 8.25H15.7812C16.1955 8.25 16.5312 7.91421 16.5312 7.5V5.25C16.5312 4.83579 16.1955 4.5 15.7812 4.5Z" stroke="#C1A3FF" stroke-width="2" stroke-linecap="round" stroke-linejoin="round"/>
</g>
<defs>
<clipPath id="clip0_318_24763">
<rect width="18" height="18" fill="white" transform="translate(0.03125)"/>
</clipPath>
</defs>
</svg>
