<svg width="33" height="33" viewBox="0 0 33 33" fill="none" xmlns="http://www.w3.org/2000/svg">
<g clip-path="url(#clip0_315_19229)">
<path d="M16.0156 3.68359C8.83438 3.68359 3.01562 9.50234 3.01562 16.6836V19.1836C3.01562 20.0148 2.34687 20.6836 1.51562 20.6836C0.684375 20.6836 0.015625 20.0148 0.015625 19.1836V16.6836C0.015625 7.84609 7.17813 0.683594 16.0156 0.683594C24.8531 0.683594 32.0156 7.84609 32.0156 16.6836V25.6898C32.0156 28.7273 29.5531 31.1898 26.5094 31.1898L19.6156 31.1836C19.0969 32.0773 18.1281 32.6836 17.0156 32.6836H15.0156C13.3594 32.6836 12.0156 31.3398 12.0156 29.6836C12.0156 28.0273 13.3594 26.6836 15.0156 26.6836H17.0156C18.1281 26.6836 19.0969 27.2898 19.6156 28.1836L26.5156 28.1898C27.8969 28.1898 29.0156 27.0711 29.0156 25.6898V16.6836C29.0156 9.50234 23.1969 3.68359 16.0156 3.68359ZM9.01562 13.6836H10.0156C11.1219 13.6836 12.0156 14.5773 12.0156 15.6836V22.6836C12.0156 23.7898 11.1219 24.6836 10.0156 24.6836H9.01562C6.80937 24.6836 5.01562 22.8898 5.01562 20.6836V17.6836C5.01562 15.4773 6.80937 13.6836 9.01562 13.6836ZM23.0156 13.6836C25.2219 13.6836 27.0156 15.4773 27.0156 17.6836V20.6836C27.0156 22.8898 25.2219 24.6836 23.0156 24.6836H22.0156C20.9094 24.6836 20.0156 23.7898 20.0156 22.6836V15.6836C20.0156 14.5773 20.9094 13.6836 22.0156 13.6836H23.0156Z" fill="#F2F0F7"/>
</g>
<defs>
<clipPath id="clip0_315_19229">
<rect width="32" height="32" fill="white" transform="translate(0.015625 0.683594)"/>
</clipPath>
</defs>
</svg>
