<svg width="18" height="25" viewBox="0 0 18 25" fill="none" xmlns="http://www.w3.org/2000/svg">
<g clip-path="url(#clip0_344_9675)">
<path d="M12.75 18.1836C13.2 16.6883 14.1328 15.4133 15.0563 14.143C15.3 13.8102 15.5438 13.4773 15.7781 13.1398C16.7063 11.8039 17.25 10.1867 17.25 8.43828C17.25 3.87734 13.5562 0.183594 9 0.183594C4.44375 0.183594 0.75 3.87734 0.75 8.43359C0.75 10.182 1.29375 11.8039 2.22188 13.1352C2.45625 13.4727 2.7 13.8055 2.94375 14.1383C3.87187 15.4086 4.80469 16.6883 5.25 18.1789H12.75V18.1836ZM9 24.1836C11.0719 24.1836 12.75 22.5055 12.75 20.4336V19.6836H5.25V20.4336C5.25 22.5055 6.92812 24.1836 9 24.1836ZM5.25 8.43359C5.25 8.84609 4.9125 9.18359 4.5 9.18359C4.0875 9.18359 3.75 8.84609 3.75 8.43359C3.75 5.53203 6.09844 3.18359 9 3.18359C9.4125 3.18359 9.75 3.52109 9.75 3.93359C9.75 4.34609 9.4125 4.68359 9 4.68359C6.92812 4.68359 5.25 6.36172 5.25 8.43359Z" fill="#F2F0F7"/>
</g>
<defs>
<clipPath id="clip0_344_9675">
<rect width="18" height="24" fill="white" transform="translate(0 0.183594)"/>
</clipPath>
</defs>
</svg>
