<svg width="72" height="19" viewBox="0 0 72 19" fill="none" xmlns="http://www.w3.org/2000/svg">
<path d="M10.6923 0.5H18.3906C18.3906 10.2149 17.628 16.264 12.6699 16.264C11.3231 16.264 10.3103 15.5679 9.56166 14.6201C8.77905 16.8839 7.53373 18.5 5.57304 18.5C1.02627 18.5 0.457988 10.9668 0.390625 9.55424H7.67779C7.67779 10.1499 8.14976 12.8326 9.56166 14.6201C11.3909 9.32905 10.6923 0.5 10.6923 0.5Z" fill="#0F0F0F"/>
<path d="M67.2594 16.2675C66.2624 16.2675 65.4019 16.0599 64.6779 15.6447C63.9539 15.2236 63.3961 14.6304 63.0044 13.8653C62.6187 13.1001 62.4258 12.1985 62.4258 11.1605C62.4258 10.1343 62.6187 9.23567 63.0044 8.46456C63.3901 7.68753 63.9331 7.08251 64.6334 6.64951C65.3337 6.2165 66.1586 6 67.1081 6C67.7193 6 68.2979 6.09787 68.8439 6.29361C69.3958 6.48935 69.8824 6.79186 70.3038 7.20114C70.7311 7.61042 71.0664 8.1324 71.3097 8.76707C71.553 9.39582 71.6746 10.1462 71.6746 11.0181V11.7477H63.5207V10.1729H70.5085L69.4136 10.6355C69.4136 10.072 69.3276 9.58266 69.1555 9.16745C68.9834 8.74631 68.7282 8.41711 68.3899 8.17985C68.0517 7.94259 67.6303 7.82396 67.1259 7.82396C66.6214 7.82396 66.1912 7.94259 65.8351 8.17985C65.4791 8.41711 65.209 8.73742 65.0251 9.14076C64.8411 9.53818 64.7491 9.98304 64.7491 10.4754V11.5697C64.7491 12.1748 64.853 12.6938 65.0607 13.1268C65.2743 13.5538 65.571 13.8801 65.9509 14.1055C66.3366 14.3309 66.7846 14.4436 67.295 14.4436C67.6273 14.4436 67.93 14.3961 68.203 14.3012C68.4819 14.2063 68.7193 14.064 68.9151 13.8741C69.1169 13.6784 69.2712 13.4382 69.378 13.1535L71.5678 13.4115C71.4254 13.9868 71.1613 14.491 70.7756 14.924C70.3958 15.3511 69.9062 15.6833 69.3068 15.9205C68.7133 16.1519 68.0309 16.2675 67.2594 16.2675Z" fill="#0F0F0F"/>
<path d="M59.0268 16.0718V6.12453H61.3679V16.0718H59.0268ZM60.2018 5.02033C59.8279 5.02033 59.5075 4.89577 59.2404 4.64665C58.9734 4.39752 58.8398 4.09798 58.8398 3.74801C58.8398 3.39212 58.9734 3.08961 59.2404 2.84049C59.5075 2.59136 59.8279 2.4668 60.2018 2.4668C60.5697 2.4668 60.8872 2.59136 61.1543 2.84049C61.4213 3.08961 61.5549 3.38915 61.5549 3.73912C61.5549 4.09501 61.4213 4.39752 61.1543 4.64665C60.8872 4.89577 60.5697 5.02033 60.2018 5.02033Z" fill="#0F0F0F"/>
<path d="M43.6992 16.0718V6.12456H45.9335V7.82395H46.0582C46.2659 7.25452 46.6101 6.80966 47.0908 6.48935C47.5715 6.16312 48.1412 6 48.7999 6C49.4764 6 50.0461 6.16312 50.509 6.48935C50.9719 6.81559 51.2953 7.26046 51.4793 7.82395H51.5861C51.8116 7.27232 52.1855 6.83042 52.7077 6.49825C53.23 6.16608 53.8531 6 54.5771 6C55.491 6 56.2358 6.29065 56.8114 6.87194C57.393 7.4473 57.6838 8.28958 57.6838 9.39878V16.0718H55.3337V9.75468C55.3337 9.14373 55.1676 8.69589 54.8352 8.41118C54.5088 8.12053 54.1083 7.97521 53.6335 7.97521C53.0697 7.97521 52.6306 8.15316 52.3161 8.50905C52.0015 8.85901 51.8443 9.30981 51.8443 9.86145V16.0718H49.5298V9.6657C49.5298 9.14966 49.3785 8.74038 49.0758 8.43787C48.7732 8.12943 48.3726 7.97521 47.8741 7.97521C47.5358 7.97521 47.2273 8.06122 46.9483 8.23323C46.6694 8.40525 46.4469 8.64548 46.2807 8.95392C46.1205 9.26236 46.0404 9.61825 46.0404 10.0216V16.0718H43.6992Z" fill="#0F0F0F"/>
<path d="M36.919 16.2497C36.1416 16.2497 35.4443 16.051 34.8271 15.6536C34.2099 15.2503 33.7203 14.666 33.3583 13.9008C33.0023 13.1357 32.8242 12.2074 32.8242 11.116C32.8242 10.0068 33.0052 9.07255 33.3672 8.31331C33.7352 7.55407 34.2307 6.97871 34.8538 6.58722C35.4769 6.19574 36.1713 6 36.9368 6C37.5184 6 37.9961 6.09787 38.37 6.29361C38.7438 6.48935 39.0406 6.72662 39.2601 7.0054C39.4857 7.27825 39.6578 7.53331 39.7764 7.77057H39.8833V6.12456H42.2155V16.0718H39.9189V14.497H39.7764C39.6578 14.7402 39.4827 14.9982 39.2512 15.271C39.0257 15.5379 38.7231 15.7693 38.3433 15.965C37.9694 16.1548 37.4946 16.2497 36.919 16.2497ZM37.5777 14.3279C38.0822 14.3279 38.5065 14.1945 38.8507 13.9275C39.1949 13.6547 39.4589 13.278 39.6429 12.7976C39.8269 12.3112 39.9189 11.7477 39.9189 11.1071C39.9189 10.4605 39.8299 9.9 39.6518 9.42548C39.4738 8.94502 39.2097 8.5743 38.8596 8.31331C38.5094 8.05232 38.0822 7.92183 37.5777 7.92183C37.0555 7.92183 36.6193 8.05825 36.2692 8.3311C35.919 8.60396 35.655 8.98061 35.4769 9.46107C35.3048 9.94152 35.2188 10.4902 35.2188 11.1071C35.2188 11.724 35.3078 12.2756 35.4858 12.762C35.6639 13.2484 35.9279 13.631 36.2781 13.9097C36.6341 14.1885 37.0674 14.3279 37.5777 14.3279Z" fill="#0F0F0F"/>
<path d="M27.4253 16.2317C26.6297 16.2317 25.9015 16.092 25.2405 15.8126C24.5857 15.5272 24.0655 15.102 23.6799 14.5372C23.2943 13.9724 23.1016 13.274 23.1016 12.4419V12.2324H25.5618V12.4419C25.5618 12.8063 25.6383 13.1221 25.7913 13.3894C25.9504 13.6566 26.1707 13.86 26.4523 13.9997C26.7338 14.1394 27.0581 14.2093 27.4253 14.2093C27.8231 14.2093 28.1597 14.1273 28.4351 13.9633C28.7167 13.7993 28.9278 13.5533 29.0686 13.2254C29.2154 12.8974 29.2889 12.4966 29.2889 12.0229V2.47559H31.7399V12.0229C31.7399 12.8974 31.5625 13.6505 31.2075 14.2821C30.8587 14.9077 30.3599 15.3905 29.7112 15.7306C29.0686 16.0647 28.3066 16.2317 27.4253 16.2317Z" fill="#0F0F0F"/>
</svg>
