<svg width="13" height="14" viewBox="0 0 13 14" fill="none" xmlns="http://www.w3.org/2000/svg">
<path d="M9.53125 4.24177C10.8407 4.99775 11.4954 5.37574 11.7633 5.83984C12.1206 6.45865 12.1206 7.22104 11.7633 7.83984C11.4954 8.30395 10.8407 8.68194 9.53125 9.43792L5.03125 12.036C3.72185 12.792 3.06715 13.17 2.53125 13.17C1.81672 13.17 1.15646 12.7888 0.799199 12.17C0.531249 11.7059 0.531249 10.9499 0.531249 9.43792L0.53125 4.24176C0.53125 2.7298 0.53125 1.97382 0.799199 1.50972C1.15646 0.890914 1.81672 0.509716 2.53125 0.509716C3.06715 0.509716 3.72185 0.887708 5.03125 1.64369L9.53125 4.24177Z" fill="#0F0F0F"/>
</svg>
