<svg width="121" height="121" viewBox="0 0 121 121" fill="none" xmlns="http://www.w3.org/2000/svg">
<path d="M60.9376 0.861328C62.0157 0.861328 63.0938 1.09438 64.0782 1.53718L108.211 20.1579C113.367 22.3253 117.211 27.3825 117.188 33.4884C117.07 56.6071 107.508 98.9058 67.1251 118.133C63.211 119.997 58.6642 119.997 54.7501 118.133C14.3673 98.9058 4.80479 56.6071 4.68761 33.4884C4.66417 27.3825 8.50792 22.3253 13.6642 20.1579L57.8204 1.53718C58.7813 1.09438 59.8595 0.861328 60.9376 0.861328ZM60.9376 16.4291V104.522C93.2813 88.9545 101.977 54.4863 102.188 33.8147L60.9376 16.4291Z" fill="#CECECE"/>
</svg>
